<?xml version="1.0" standalone="no"?>
<!DOCTYPE svg PUBLIC "-//W3C//DTD SVG 1.1//EN" "http://www.w3.org/Graphics/SVG/1.1/DTD/svg11.dtd" >
<svg xmlns="http://www.w3.org/2000/svg">
<metadata>Generated by IcoMoon</metadata>
<defs>
<font id="icomoon" horiz-adv-x="1024">
<font-face units-per-em="1024" ascent="960" descent="-64" />
<missing-glyph horiz-adv-x="1024" />
<glyph unicode="&#x20;" horiz-adv-x="512" d="" />
<glyph unicode="&#xe900;" glyph-name="arrow" d="M70.315 886.854c-16.721-18.030-25.995-41.822-31.83-62.075-6.224-21.606-10.468-46.321-13.44-71.77-5.955-51.001-7.444-110.806-6.96-166.78 0.486-56.29 2.987-110.209 5.353-149.951 1.185-19.905 2.341-36.333 3.204-47.822 0.432-5.746 0.79-10.26 1.043-13.362l0.296-3.571 0.081-0.949 0.032-0.368c2.629-30.182 29.229-52.519 59.411-49.889s52.513 29.268 49.886 59.449l-0.015 0.184-0.068 0.798-0.269 3.256c-0.236 2.885-0.576 7.169-0.989 12.67-0.827 11.004-1.943 26.861-3.090 46.124-2.297 38.594-4.698 90.542-5.163 144.379-0.468 54.153 1.042 108.735 6.224 153.108 0.291 2.492 0.592 4.933 0.901 7.323l777.149-777.15c21.424-21.416 56.152-21.416 77.575 0 21.424 21.424 21.424 56.159 0 77.583l-777.325 777.327c1.050 0.129 2.11 0.257 3.181 0.382 43.873 5.141 98.762 6.677 153.618 6.256 54.513-0.419 107.454-2.752 146.877-4.992 19.678-1.119 35.907-2.21 47.184-3.019 5.637-0.404 10.031-0.737 12.995-0.968l4.407-0.351c30.19-2.507 56.699 19.933 59.209 50.125s-19.968 56.706-50.161 59.216l-1.302 0.106-3.646 0.288c-3.169 0.246-7.783 0.596-13.654 1.017-11.737 0.842-28.513 1.969-48.805 3.123-40.515 2.303-95.365 4.728-152.261 5.166-56.553 0.434-116.692-1.076-167.231-6.998-25.181-2.951-49.646-7.18-70.792-13.457-19.27-5.721-44.020-15.422-61.625-34.406z" />
<glyph unicode="&#xe901;" glyph-name="check" d="M727.859 566.178c13.266 14.475 12.288 36.967-2.185 50.236-14.478 13.269-36.966 12.291-50.239-2.184l-235.646-257.070-92.26 92.26c-13.885 13.885-36.398 13.885-50.283 0s-13.885-36.398 0-50.284l118.518-118.52c6.858-6.855 16.218-10.615 25.914-10.405s18.885 4.375 25.438 11.52l260.742 284.447zM512.019-61.65c-281.461 0-509.63 228.17-509.63 509.632s228.169 509.63 509.63 509.63c281.462 0 509.632-228.169 509.632-509.63s-228.17-509.632-509.632-509.632zM73.5 447.981c0-242.186 196.332-438.521 438.519-438.521s438.521 196.335 438.521 438.521c0 242.187-196.335 438.519-438.521 438.519-242.187 0-438.519-196.332-438.519-438.519z" />
<glyph unicode="&#xe902;" glyph-name="help-circle" d="M511.989 629.345c-29.455 0-53.336-23.878-53.336-53.334 0-17.671-14.325-32-32-32-17.671 0-32 14.329-32 32 0 64.802 52.535 117.334 117.336 117.334s117.332-52.532 117.332-117.334c0-23.311-6.832-45.122-18.611-63.429-7.376-11.465-16.004-22.411-23.958-32.296l-4.29-5.317c-6.597-8.17-12.657-15.671-18.256-23.362-13.806-18.977-20.217-33.236-20.217-46.259v-21.336c0-17.671-14.329-32-32-32-17.675 0-32 14.329-32 32v21.336c0 34.099 16.742 62.303 32.468 83.913 6.641 9.132 13.923 18.136 20.542 26.328l3.891 4.816c7.899 9.819 14.629 18.461 20.001 26.811 5.332 8.287 8.43 18.132 8.43 28.796 0 29.456-23.877 53.334-53.332 53.334zM511.656 277.347c-23.567 0-42.668-19.105-42.668-42.668s19.101-42.668 42.668-42.668h0.38c23.567 0 42.668 19.105 42.668 42.668s-19.101 42.668-42.668 42.668h-0.38zM53.322 448.011c0 253.316 205.352 458.668 458.668 458.668 253.312 0 458.664-205.352 458.664-458.668 0-253.312-205.352-458.664-458.664-458.664-253.316 0-458.668 205.352-458.668 458.664zM511.989 842.678c-217.969 0-394.668-176.698-394.668-394.668 0-217.966 176.698-394.664 394.668-394.664 217.966 0 394.664 176.699 394.664 394.664 0 217.969-176.699 394.668-394.664 394.668z" />
<glyph unicode="&#xe903;" glyph-name="logout" d="M109.714 430.786c0 219.989 190.949 402.286 431.543 402.286 21.524 0 42.661-1.467 63.304-4.295 20.010-2.741 38.455 11.259 41.196 31.27s-11.259 38.455-31.27 41.196c-23.926 3.277-48.379 4.971-73.23 4.971-276.471 0-504.686-210.669-504.686-475.428s228.214-475.432 504.686-475.432c24.851 0 49.303 1.697 73.23 4.974 20.011 2.743 34.011 21.189 31.27 41.194-2.741 20.012-21.186 34.011-41.196 31.276-20.643-2.831-41.779-4.301-63.304-4.301-240.594 0-431.543 182.301-431.543 402.289zM854.44 578.915c-14.482 14.077-37.632 13.749-51.712-0.735s-13.751-37.637 0.731-51.715c7.885-7.658 20.421-17.52 32.351-26.893l2.779-2.18c11.981-9.407 24.795-19.466 36.923-29.739l0.344-0.295h-412.619c-20.198 0-36.571-16.374-36.571-36.571s16.374-36.571 36.571-36.571l412.275-0.295c-12.127-10.272-24.934-20.33-36.915-29.736l-2.787-2.184c-11.93-9.373-24.466-19.234-32.351-26.893-14.482-14.078-14.811-37.231-0.731-51.714s37.23-14.813 51.712-0.735c4.454 4.325 13.319 11.426 26.551 21.822l2.926 2.295c11.805 9.268 25.659 20.14 38.875 31.342 14.168 12.006 28.884 25.443 40.324 38.875 5.734 6.731 11.388 14.319 15.762 22.481 4.213 7.872 8.55 18.719 8.55 31.314s-4.337 23.442-8.55 31.314c-4.374 8.162-10.028 15.749-15.762 22.48-11.44 13.433-26.156 26.87-40.324 38.875-13.217 11.203-27.070 22.075-38.875 31.342l-2.926 2.295c-13.232 10.396-22.096 17.497-26.551 21.822z" />
<glyph unicode="&#xe904;" glyph-name="timer" d="M544 554.643c0 17.673-14.327 32-32 32s-32-14.327-32-32v-170.667c0-8.487 3.371-16.626 9.373-22.627l85.334-85.334c12.496-12.497 32.758-12.497 45.255 0s12.496 32.758 0 45.255l-75.961 75.96v157.412zM544 842.643v-22.546c74.735-5.685 143.951-31.118 202.437-71.091l41.604 41.598c12.493 12.497 32.753 12.497 45.253 0 12.493-12.496 12.493-32.758 0-45.254l-36.659-36.659c80.859-75.891 131.365-183.737 131.365-303.38 0-229.752-186.251-416.003-416-416.003s-416 186.251-416 416.003c0 119.643 50.508 227.49 131.365 303.38l-36.658 36.659c-12.497 12.496-12.497 32.758 0 45.254s32.758 12.497 45.255 0l41.598-41.598c58.49 39.973 127.705 65.407 202.441 71.091v22.546h-53.334c-17.673 0-32 14.326-32 32s14.327 32 32 32h170.667c17.673 0 32-14.327 32-32s-14.327-32-32-32h-53.334zM512 757.309c-194.404 0-352-157.596-352-352 0-194.402 157.596-352.003 352-352.003s352 157.601 352 352.003c0 194.404-157.596 352-352 352z" />
<glyph unicode="&#xe905;" glyph-name="message-question" d="M511.95 373.509c-17.664 0-32 14.336-32 32v16.21c0 36.951 22.015 64.984 41.471 89.731l0.471 0.602c6.313 8.054 12.273 15.658 16.768 22.777 3.369 5.376 5.289 11.947 5.289 18.305 0 18.602-14.336 33.708-31.999 33.708s-32-15.106-32-33.708-14.336-32-32-32c-17.664 0-32 14.336-32 32 0 53.888 43.051 97.708 96 97.708 52.95 0 95.999-43.82 95.999-97.708 0-18.475-5.202-36.562-15.104-52.392-6.482-10.198-13.911-19.67-21.079-28.8l-0.138-0.178c-13.609-17.353-27.679-35.289-27.679-50.045v-16.21c0-17.664-14.336-32-31.999-32zM480.158 320.174c0-17.664 14.548-32 32.21-32 17.664 0 32 14.336 32 32s-14.336 32-32 32h-0.423c-17.664 0-31.788-14.336-31.788-32zM176.801 10.762c-2.304 0-4.607 0-6.954 0.087l-3.329 0.082c-29.142 0.896-54.356 1.71-69.546 26.030l-0.771 1.321c-14.377 25.682-1.834 49.321 15.528 82.038l0.772 1.459c14.208 26.67 28.16 63.575 14.934 89.216-43.99 65.536-68.31 130.391-72.321 192.809-2.219 37.079-2.219 74.54 0 111.49 12.501 196.309 168.191 354.092 362.154 367.063 61.782 3.925 127.234 3.925 189.314 0 194.089-13.014 349.824-170.751 362.281-366.975 2.222-37.077 2.222-74.538 0-111.49-12.498-196.306-168.192-354.048-362.153-367.058-62.208-4.352-127.789-4.352-189.613 0-24.704 1.536-50.898 7.506-73.554 16.85l-5.25 2.176-2.647 1.085c-5.048 2.079-10 4.111-13.778 5.53-2.875-1.956-6.519-4.526-10.243-7.153l-2.262-1.592-2.642-1.879c-37.206-27.689-79.832-41.175-130.008-41.175l0.087 0.087zM160.331 75.187c1.784-0.082 3.625-0.133 5.448-0.179l5.86-0.159c39.211-0.896 69.373 7.89 97.192 28.626 0.106 0.067 0.203 0.138 0.3 0.215 0.097 0.072 0.193 0.148 0.3 0.21l2.994 2.12c18.541 13.179 27.875 19.82 40.569 21.775 13.909 2.094 25.898-2.811 49.791-12.667l5.204-2.135c16.086-6.656 35.499-11.054 53.334-12.16 59.179-4.142 121.684-4.183 180.989 0h0.092c162.048 10.834 292.091 142.93 302.587 307.154 2.048 33.792 2.048 69.675 0 103.552-10.45 164.139-140.544 296.195-302.546 307.075-59.351 3.712-121.985 3.712-181.035 0-161.92-10.838-292.013-142.892-302.467-307.159-2.048-33.792-2.048-69.677 0-103.556 3.286-51.241 24.319-105.897 62.421-162.345 0.512-0.768 1.026-1.577 1.496-2.427 22.57-40.791 17.919-91.694-13.825-151.301l-0.766-1.403c-2.688-5.038-5.506-10.414-7.938-15.237z" />
<glyph unicode="&#xe906;" glyph-name="information-circle" d="M490.301 458.6c-2.963 0.048-6.39 0.049-10.617 0.049-17.673 0-32 14.327-32 32s14.327 32 32 32l1.469 0.001c8.752 0.004 18.215 0.007 26.203-1.067 9.36-1.258 21.315-4.493 31.376-14.554s13.292-22.015 14.551-31.373c1.075-7.988 1.070-17.452 1.070-26.203l-0.005-214.802c0-17.674-14.326-32-32-32-17.671 0-31.997 14.326-31.997 32v213.335c0 4.225-0.002 7.652-0.049 10.615zM511.684 661.317c-23.564 0-42.667-19.103-42.667-42.666s19.103-42.667 42.667-42.667h0.383c23.562 0 42.665 19.103 42.665 42.667s-19.103 42.666-42.665 42.666h-0.383zM53.35 447.985c0-253.317 205.352-458.67 458.665-458.67 253.317 0 458.67 205.353 458.67 458.67 0 253.314-205.353 458.665-458.67 458.665-253.314 0-458.665-205.352-458.665-458.665zM512.015 53.315c-217.967 0-394.665 176.701-394.665 394.67 0 217.967 176.698 394.665 394.665 394.665 217.969 0 394.67-176.698 394.67-394.665 0-217.969-176.701-394.67-394.67-394.67z" />
<glyph unicode="&#xe907;" glyph-name="invoice-01" d="M469.297 458.658h-128c-17.664 0-32 14.336-32 32s14.336 32 31.999 32h128c17.665 0 32.001-14.336 32.001-32s-14.336-32-32-32zM341.297 629.325h256.002c17.664 0 32 14.336 32 32s-14.336 32-32 32h-256.002c-17.664 0-32-14.336-32-32s14.336-32 32-32zM511.964-10.675c-21.498 0-37.707 10.235-62.228 25.713l-81.601 51.471c-10.88 6.871-23.254 14.679-26.496 15.017h-0.044c-3.243 0-17.795-9.144-26.787-14.797l-0.348-0.22c-3.407-2.161-7.946-5.33-12.751-8.684l-0.391-0.276c-31.189-21.842-83.412-58.368-128.298-29.44-34.389 22.185-34.39 62.72-34.39 136.361v451.929c0 126.293 0.001 195.838 46.807 242.985 46.847 47.317 115.879 47.317 241.188 47.317h170.674c125.348 0 194.386 0 241.234-47.317 46.766-47.146 46.766-116.691 46.766-242.984v-451.93c0-73.595 0-114.176-34.35-136.32-44.908-28.913-97.065 7.567-128.302 29.414l-0.036 0.026-1.715 1.198c-4.301 3.011-8.3 5.806-11.428 7.762-10.88 6.871-23.255 14.679-26.496 15.022h-0.046c-3.241 0-17.792-9.149-26.788-14.802l-0.343-0.22-81.536-51.41c-24.576-15.534-40.791-25.815-62.296-25.815zM341.468 145.485h2.346c20.182-0.681 35.414-10.281 58.454-24.832l81.535-51.415c11.606-7.337 24.705-15.57 28.161-15.872 3.4 0.297 16.129 8.31 27.51 15.478l82.319 51.896c23.567 14.843 40.571 25.554 63.355 24.745 20.178-0.681 35.415-10.281 58.455-24.832 4.818-3.031 10.112-6.743 15.698-10.665 38.656-27.054 52.142-30.464 56.576-28.288 5.422 8.274 5.422 46.121 5.422 82.729v451.926c0 112.849 0 169.473-28.206 197.932-28.073 28.372-84.137 28.372-195.789 28.372h-170.674c-111.655 0-167.68 0.001-195.754-28.373-28.246-28.458-28.246-85.121-28.246-197.931v-451.926c0-36.649 0-74.496 5.419-82.77 4.394-2.176 17.876 1.193 56.575 28.283 5.589 3.927 10.881 7.598 15.702 10.67 22.826 14.377 39.51 24.873 61.142 24.873z" />
<glyph unicode="&#xe908;" glyph-name="user-group" d="M512.021 821.313c-100.148 0-181.334-81.186-181.334-181.334s81.186-181.333 181.334-181.333c100.147 0 181.336 81.186 181.336 181.333s-81.188 181.334-181.336 181.334zM394.687 639.979c0 64.802 52.532 117.334 117.334 117.334s117.333-52.532 117.333-117.334c0-64.801-52.532-117.333-117.333-117.333s-117.334 52.532-117.334 117.333zM234.689 735.979c-76.584 0-138.667-62.083-138.667-138.666s62.083-138.667 138.667-138.667c17.673 0 32 14.327 32 32s-14.327 32-32 32c-41.237 0-74.667 33.43-74.667 74.667s33.43 74.666 74.667 74.666c17.673 0 32 14.327 32 32s-14.327 32-32 32zM245.226 408.196c-1.592 17.601-17.151 30.579-34.753 28.987-40.044-3.623-78.979-19.028-113.296-45.454-1.977-1.523-4.582-3.417-7.642-5.644-14.536-10.575-39.355-28.631-56.081-49.804-10.687-13.528-20.681-31.232-22.481-52.525-1.884-22.291 5.59-43.949 21.614-63.693 24.527-30.221 58.182-60.083 105.077-60.083 17.674 0 32 14.323 32 32 0 17.67-14.326 32-32 32-17.046 0-34.248 10.374-55.384 36.416-7.346 9.050-7.807 14.739-7.533 17.971 0.358 4.243 2.614 10.246 8.929 18.24 10.634 13.466 25.541 24.419 40.031 35.069 4.249 3.123 8.461 6.219 12.52 9.344 25.189 19.397 52.695 29.95 80.015 32.422 17.601 1.592 30.579 17.152 28.986 34.753zM768.019 735.979c-17.67 0-32-14.326-32-32s14.33-32 32-32c41.242 0 74.669-33.429 74.669-74.666s-33.427-74.667-74.669-74.667c-17.67 0-32-14.327-32-32s14.33-32 32-32c76.582 0 138.669 62.083 138.669 138.667s-62.086 138.666-138.669 138.666zM813.568 437.183c-17.6 1.592-33.158-11.386-34.752-28.987s11.386-33.161 28.986-34.753c27.322-2.472 54.829-13.025 80.019-32.422 4.058-3.124 8.269-6.22 12.512-9.342 14.49-10.65 29.402-21.605 40.038-35.071 6.31-7.994 8.57-13.997 8.928-18.24 0.275-3.232-0.186-8.922-7.533-17.971-21.139-26.042-38.342-36.416-55.386-36.416-17.677 0-32-14.33-32-32 0-17.677 14.323-32 32-32 46.893 0 80.55 29.862 105.075 60.083 16.026 19.744 23.501 41.402 21.613 63.693-1.798 21.293-11.789 38.996-22.477 52.525-16.73 21.172-41.542 39.225-56.077 49.8-3.059 2.226-5.67 4.124-7.648 5.647-34.317 26.426-73.254 41.831-113.299 45.454zM328.107 342.452c112.545 69.591 255.295 69.591 367.842 0 3.315-2.051 7.514-4.509 12.346-7.334 21.856-12.789 56.557-33.096 80.23-57.16 14.874-15.117 29.702-35.718 32.41-61.408 2.893-27.488-8.774-52.928-31.027-74.944-36.762-36.371-82.304-66.963-142.016-66.963h-271.731c-59.71 0-105.25 30.592-142.012 66.963-22.253 22.016-33.919 47.456-31.026 74.944 2.704 25.69 17.535 46.291 32.405 61.408 23.676 24.064 58.372 44.367 80.229 57.157 4.829 2.826 9.032 5.285 12.35 7.337zM662.291 288.019c-91.921 56.836-208.607 56.836-300.525 0-5.518-3.411-11.434-6.899-17.539-10.502-21.84-12.877-46.086-27.174-63.076-44.442-10.453-10.624-13.869-18.381-14.38-23.226-0.321-3.053-0.167-10.323 12.389-22.746 31.255-30.925 61.469-48.461 97-48.461h271.731c35.533 0 65.747 17.536 97.005 48.461 12.557 12.422 12.71 19.693 12.384 22.746-0.506 4.845-3.923 12.602-14.374 23.226-16.992 17.267-41.235 31.565-63.078 44.442-6.106 3.603-12.019 7.091-17.536 10.502z" />
<glyph unicode="&#xe909;" glyph-name="language-circle" d="M528.020 648.804c0 16.633-13.484 30.118-30.118 30.118s-30.118-13.484-30.118-30.118v-25.271h-150.588c-16.633 0-30.118-13.484-30.118-30.118s13.484-30.118 30.118-30.118h259.295c-17.919-45.625-44.241-89.881-74.849-131.533-5.757 7.468-11.517 15.177-16.959 22.724-13.576 18.826-23.635 34.546-27.464 42.761-7.026 15.076-24.945 21.602-40.021 14.575s-21.602-24.945-14.576-40.022c6.498-13.94 19.672-33.782 33.202-52.546 8.699-12.063 18.181-24.548 27.356-36.072-36.379-42.924-75.236-81.412-110.439-113.782-12.244-11.258-13.043-30.31-1.784-42.55 11.259-12.246 30.312-13.047 42.556-1.789 34.662 31.877 73.364 70.036 110.303 112.951l54.126-56.27c11.531-11.987 30.597-12.36 42.585-0.825 11.986 11.529 12.359 30.594 0.826 42.586l-59.327 61.674c40.714 53.644 76.913 113.834 98.562 178.118h78.173c16.637 0 30.118 13.484 30.118 30.118s-13.481 30.118-30.118 30.118h-190.744v25.271zM517.98 879.706c-238.414 0-431.686-193.272-431.686-431.686s193.272-431.684 431.686-431.684c238.412 0 431.689 193.271 431.689 431.684s-193.277 431.686-431.689 431.686zM146.53 448.020c0 205.146 166.304 371.451 371.451 371.451 205.145 0 371.454-166.304 371.454-371.451 0-205.145-166.31-371.449-371.454-371.449-205.146 0-371.451 166.304-371.451 371.449z" />
<glyph unicode="&#xe90a;" glyph-name="grid-view" d="M736.328 879.706h-2.933c-29.684 0-54.079 0.001-73.812-1.876-20.51-1.95-39.081-6.137-55.965-16.486-16.768-10.274-30.864-24.371-41.138-41.137-10.349-16.888-14.536-35.454-16.486-55.964-1.876-19.737-1.876-44.133-1.876-73.814v-2.936c0-29.682-0.001-54.078 1.876-73.815 1.95-20.51 6.137-39.076 16.486-55.964 10.274-16.766 24.371-30.863 41.138-41.137 16.884-10.349 35.454-14.536 55.965-16.486 19.733-1.877 44.128-1.876 73.812-1.876h2.933c29.684-0.001 54.079-0.001 73.818 1.876 20.51 1.95 39.075 6.137 55.965 16.486 16.763 10.274 30.859 24.371 41.135 41.137 10.348 16.888 14.535 35.454 16.486 55.964 1.879 19.737 1.873 44.133 1.873 73.814v2.936c0 29.682 0.006 54.077-1.873 73.814-1.952 20.51-6.138 39.076-16.486 55.964-10.276 16.766-24.371 30.863-41.135 41.137-16.89 10.349-35.454 14.536-55.965 16.486-19.739 1.877-44.134 1.876-73.818 1.876zM635.091 809.985c5.831 3.574 14.089 6.349 30.19 7.88 16.553 1.573 38.069 1.605 69.584 1.605 31.509 0 53.031-0.032 69.578-1.605 16.101-1.531 24.359-4.306 30.196-7.88 8.662-5.308 15.944-12.59 21.251-21.251 3.572-5.833 6.349-14.092 7.879-30.192 1.572-16.549 1.602-38.068 1.602-69.581s-0.030-53.032-1.602-69.581c-1.53-16.1-4.307-24.359-7.879-30.192-5.307-8.661-12.589-15.944-21.251-21.251-5.837-3.574-14.095-6.349-30.196-7.88-16.547-1.573-38.069-1.605-69.578-1.605-31.515 0-53.031 0.032-69.584 1.605-16.101 1.531-24.359 4.306-30.19 7.88-8.662 5.307-15.944 12.59-21.251 21.251-3.578 5.833-6.349 14.092-7.879 30.192-1.578 16.548-1.608 38.068-1.608 69.581s0.030 53.032 1.608 69.581c1.53 16.1 4.301 24.359 7.879 30.192 5.307 8.661 12.589 15.943 21.251 21.251zM251.513 879.706h2.935c29.682 0 54.077 0.001 73.815-1.876 20.51-1.95 39.076-6.137 55.963-16.486 16.766-10.274 30.863-24.371 41.137-41.137 10.349-16.888 14.536-35.454 16.486-55.964 1.876-19.737 1.876-44.132 1.876-73.813v-2.938c0.001-29.681 0.001-54.077-1.876-73.814-1.95-20.51-6.137-39.076-16.486-55.964-10.274-16.766-24.371-30.863-41.137-41.137-16.888-10.349-35.454-14.536-55.963-16.486-19.737-1.877-44.132-1.876-73.814-1.876h-2.937c-29.682-0.001-54.078-0.001-73.815 1.876-20.51 1.95-39.076 6.137-55.963 16.486-16.766 10.274-30.863 24.371-41.137 41.137-10.349 16.888-14.536 35.454-16.486 55.964-1.876 19.737-1.876 44.133-1.876 73.814v2.936c0 29.682-0.001 54.078 1.876 73.815 1.95 20.51 6.137 39.076 16.486 55.964 10.274 16.766 24.371 30.863 41.137 41.137 16.888 10.349 35.454 14.536 55.963 16.486 19.737 1.877 44.133 1.876 73.815 1.876zM183.4 817.865c-16.1-1.531-24.36-4.306-30.192-7.88-8.661-5.308-15.944-12.59-21.251-21.251-3.575-5.833-6.349-14.092-7.881-30.192-1.573-16.549-1.605-38.068-1.605-69.581s0.032-53.032 1.605-69.581c1.531-16.1 4.306-24.359 7.881-30.192 5.307-8.661 12.59-15.944 21.251-21.251 5.833-3.574 14.092-6.349 30.192-7.88 16.548-1.573 38.068-1.605 69.581-1.605s53.032 0.032 69.581 1.605c16.1 1.531 24.36 4.306 30.193 7.88 8.661 5.307 15.943 12.59 21.25 21.251 3.575 5.833 6.349 14.092 7.881 30.192 1.573 16.548 1.605 38.068 1.605 69.581s-0.032 53.032-1.605 69.581c-1.531 16.1-4.306 24.359-7.881 30.192-5.307 8.661-12.589 15.943-21.25 21.251-5.833 3.574-14.093 6.349-30.193 7.88-16.548 1.573-38.068 1.605-69.581 1.605s-53.032-0.032-69.581-1.605zM251.513 397.823c-29.682 0.001-54.079 0.001-73.815-1.876-20.51-1.95-39.076-6.137-55.963-16.486-16.766-10.274-30.863-24.371-41.137-41.137-10.349-16.885-14.536-35.456-16.486-55.966-1.876-19.733-1.876-44.128-1.876-73.812v-2.933c0-29.684-0.001-54.079 1.876-73.818 1.95-20.51 6.137-39.075 16.486-55.965 10.274-16.763 24.371-30.859 41.137-41.135 16.888-10.348 35.454-14.535 55.963-16.486 19.737-1.879 44.133-1.879 73.815-1.873h2.936c29.682-0.006 54.077-0.006 73.815 1.873 20.51 1.952 39.076 6.138 55.963 16.486 16.766 10.276 30.863 24.371 41.137 41.135 10.349 16.89 14.536 35.454 16.486 55.965 1.876 19.739 1.876 44.134 1.876 73.818v2.933c0.001 29.684 0.001 54.079-1.876 73.812-1.95 20.51-6.137 39.081-16.486 55.966-10.274 16.766-24.371 30.863-41.137 41.137-16.888 10.349-35.454 14.536-55.963 16.486-19.737 1.877-44.132 1.876-73.814 1.876h-2.936zM153.207 328.103c5.833 3.574 14.092 6.349 30.192 7.88 16.548 1.573 38.068 1.605 69.581 1.605s53.032-0.032 69.581-1.605c16.1-1.531 24.36-4.306 30.193-7.88 8.661-5.308 15.943-12.59 21.25-21.252 3.575-5.831 6.349-14.089 7.881-30.19 1.573-16.553 1.605-38.069 1.605-69.584 0-31.509-0.032-53.031-1.605-69.578-1.531-16.101-4.306-24.359-7.881-30.196-5.307-8.662-12.589-15.944-21.25-21.251-5.833-3.572-14.093-6.349-30.193-7.879-16.548-1.572-38.068-1.602-69.581-1.602s-53.032 0.030-69.581 1.602c-16.1 1.53-24.36 4.307-30.192 7.879-8.661 5.307-15.944 12.589-21.251 21.251-3.575 5.837-6.349 14.095-7.881 30.196-1.573 16.547-1.605 38.069-1.605 69.578 0 31.515 0.032 53.031 1.605 69.584 1.531 16.101 4.306 24.359 7.881 30.19 5.307 8.662 12.59 15.944 21.251 21.252zM810.147 395.948c-19.739 1.877-44.134 1.876-73.818 1.876h-2.933c-29.684 0.001-54.079 0.001-73.812-1.876-20.51-1.95-39.081-6.137-55.965-16.486-16.768-10.274-30.864-24.371-41.138-41.137-10.349-16.885-14.536-35.456-16.486-55.966-1.876-19.733-1.876-44.128-1.876-73.812v-2.933c0-29.684-0.001-54.079 1.876-73.818 1.95-20.51 6.137-39.075 16.486-55.965 10.274-16.763 24.371-30.859 41.138-41.135 16.884-10.348 35.454-14.535 55.965-16.486 19.733-1.879 44.128-1.879 73.812-1.873h2.933c29.684-0.006 54.079-0.006 73.818 1.873 20.51 1.952 39.075 6.138 55.965 16.486 16.763 10.276 30.859 24.371 41.135 41.135 10.348 16.89 14.535 35.454 16.486 55.965 1.879 19.739 1.873 44.134 1.873 73.818v2.933c0 29.684 0.006 54.079-1.873 73.812-1.952 20.51-6.138 39.081-16.486 55.966-10.276 16.766-24.371 30.863-41.135 41.137-16.89 10.349-35.454 14.536-55.965 16.486zM635.091 328.103c5.831 3.574 14.089 6.349 30.19 7.88 16.553 1.573 38.069 1.605 69.584 1.605 31.509 0 53.031-0.032 69.578-1.605 16.101-1.531 24.359-4.306 30.196-7.88 8.662-5.308 15.944-12.59 21.251-21.252 3.572-5.831 6.349-14.089 7.879-30.19 1.572-16.553 1.602-38.069 1.602-69.584 0-31.509-0.030-53.031-1.602-69.578-1.53-16.101-4.307-24.359-7.879-30.196-5.307-8.662-12.589-15.944-21.251-21.251-5.837-3.572-14.095-6.349-30.196-7.879-16.547-1.572-38.069-1.602-69.578-1.602-31.515 0-53.031 0.030-69.584 1.602-16.101 1.53-24.359 4.307-30.19 7.879-8.662 5.307-15.944 12.589-21.251 21.251-3.578 5.837-6.349 14.095-7.879 30.196-1.578 16.547-1.608 38.069-1.608 69.578 0 31.515 0.030 53.031 1.608 69.584 1.53 16.101 4.301 24.359 7.879 30.19 5.307 8.662 12.589 15.944 21.251 21.252z" />
<glyph unicode="&#xe90b;" glyph-name="dollar-circle" d="M535.027 648.882c0 16.633-13.484 30.118-30.118 30.118s-30.118-13.484-30.118-30.118v-16.178c-60.704-11.531-92.562-49.981-101.578-78.19-6.669-18.998-9.917-48.985 5.384-76.677 16.506-29.871 49.753-48.678 99.339-52.191 55.124-3.907 86.203-8.964 103.198-17.886 7.107-3.732 10.038-7.331 11.695-10.869 1.944-4.15 3.626-11.497 2.508-24.917-1.847-22.183-11.799-33.469-24.962-40.534-15.041-8.073-35.868-11.127-56.97-10.447-20.492 0.657-47.209 5.813-68.078 16.337-20.956 10.568-30.124 23.065-30.84 37.007-0.854 16.612-15.012 29.386-31.624 28.532s-29.386-15.012-28.532-31.624c2.294-44.657 33.427-72.347 63.874-87.701 17.998-9.077 37.824-15.059 56.584-18.619v-17.613c0-16.631 13.484-30.118 30.118-30.118s30.118 13.487 30.118 30.118v13.914c20.92 1.506 43.591 6.27 63.837 17.137 30.070 16.143 52.863 44.911 56.501 88.61 1.626 19.52-0.024 38.466-7.987 55.466-8.252 17.611-21.799 30.017-38.243 38.651-30.108 15.807-74.415 20.917-126.94 24.639-36.53 2.588-47.321 14.807-50.875 21.24-4.589 8.304-4.168 19.539-1.2 27.791l0.235 0.654 0.205 0.664c2.112 6.849 19.608 37.406 75.28 39.66l0.518 0.020c1.978 0.073 4.004 0.111 6.079 0.111 46.273-0.001 70.236-36.371 72.51-53.872 2.144-16.495 17.253-28.129 33.748-25.986 16.492 2.144 28.13 17.253 25.986 33.748-5.126 39.462-43.358 94.258-109.653 104.618v14.502zM505.981 879.706c-238.414 0-431.686-193.272-431.686-431.686s193.272-431.684 431.686-431.684c238.413 0 431.684 193.271 431.684 431.684s-193.271 431.686-431.684 431.686zM134.53 448.020c0 205.146 166.304 371.451 371.451 371.451 205.145 0 371.449-166.304 371.449-371.451 0-205.145-166.304-371.449-371.449-371.449-205.147 0-371.451 166.304-371.451 371.449z" />
<glyph unicode="&#xe90c;" glyph-name="grid" d="M330.646 874.687v-181.333h362.666v181.333c0 17.673 14.33 32 32 32s32-14.327 32-32v-181.333h181.331c17.677 0 32-14.327 32-32s-14.323-32-32-32h-181.331v-362.666h181.331c17.677 0 32-14.33 32-32s-14.323-32-32-32h-181.331v-181.331c0-17.677-14.33-32-32-32s-32 14.323-32 32v181.331h-362.666v-181.331c0-17.677-14.327-32-32-32s-32 14.323-32 32v181.331h-181.333c-17.673 0-32 14.33-32 32s14.327 32 32 32h181.333v362.666h-181.333c-17.673 0-32 14.327-32 32s14.327 32 32 32h181.333v181.333c0 17.673 14.327 32 32 32s32-14.327 32-32zM693.312 266.688v362.666h-362.666v-362.666h362.666z" />
<glyph unicode="&#xe90d;" glyph-name="more" d="M512.031 922.545c-42.844 0-77.576-34.732-77.576-77.576s34.732-77.575 77.576-77.575h0.557c42.844 0 77.576 34.732 77.576 77.575s-34.732 77.576-77.576 77.576h-0.557zM434.212 472.606c0 42.844 34.731 77.576 77.575 77.576h0.558c42.844 0 77.575-34.732 77.575-77.576s-34.731-77.575-77.575-77.575h-0.558c-42.844 0-77.575 34.732-77.575 77.575zM139.667 177.819c-42.844 0-77.576-34.732-77.576-77.576s34.732-77.575 77.576-77.575h0.557c42.844 0 77.576 34.731 77.576 77.575s-34.732 77.576-77.576 77.576h-0.557zM434.212 100.242c0 42.844 34.731 77.576 77.575 77.576h0.558c42.844 0 77.575-34.732 77.575-77.576s-34.731-77.575-77.575-77.575h-0.558c-42.844 0-77.575 34.731-77.575 77.575zM806.818 100.242c0 42.844 34.732 77.576 77.576 77.576h0.557c42.844 0 77.576-34.732 77.576-77.576s-34.732-77.575-77.576-77.575h-0.557c-42.844 0-77.576 34.731-77.576 77.575zM806.818 472.606c0 42.844 34.732 77.576 77.576 77.576h0.557c42.844 0 77.576-34.732 77.576-77.576s-34.732-77.575-77.576-77.575h-0.557c-42.844 0-77.576 34.732-77.576 77.575zM884.394 922.545c-42.844 0-77.576-34.732-77.576-77.576s34.732-77.575 77.576-77.575h0.557c42.844 0 77.576 34.732 77.576 77.575s-34.732 77.576-77.576 77.576h-0.557zM62.091 472.606c0 42.844 34.732 77.576 77.576 77.576h0.557c42.844 0 77.576-34.732 77.576-77.576s-34.732-77.575-77.576-77.575h-0.557c-42.844 0-77.576 34.732-77.576 77.575zM139.667 922.545c-42.844 0-77.576-34.732-77.576-77.576s34.732-77.575 77.576-77.575h0.557c42.844 0 77.576 34.732 77.576 77.575s-34.732 77.576-77.576 77.576h-0.557z" />
<glyph unicode="&#xe90e;" glyph-name="bell" d="M512.082 906.65c-194.889 0-353.059-157.495-353.061-351.997-0.004-45.241-3.039-79.388-23.844-110.078-2.893-4.204-6.731-9.472-10.926-15.227-7.285-9.999-15.643-21.468-21.982-31.401-11.189-17.531-22.12-38.671-25.879-63.309-12.26-80.374 44.258-132.408 100.545-155.725 41.903-17.362 87.181-31.048 134.407-41.073 24.494-86.205 105.543-148.521 200.697-148.521 95.15 0 176.195 62.305 200.694 148.506 47.258 10.020 92.564 23.716 134.492 41.088 56.289 23.316 112.809 75.351 100.547 155.725-3.758 24.632-14.689 45.778-25.876 63.309-6.344 9.933-14.7 21.402-21.985 31.401-4.193 5.75-8.028 11.018-10.921 15.222-20.808 30.693-23.844 64.836-23.849 110.081 0 194.504-158.167 352-353.060 352zM223.021 554.65c0 158.958 129.317 288 289.061 288s289.060-129.044 289.060-288.003c0.005-46.183 2.284-97.989 34.949-146.097l0.102-0.148c5.366-7.813 10.081-14.218 14.525-20.255 5.919-8.044 11.356-15.437 17.229-24.632 9.098-14.254 14.74-26.609 16.558-38.528 5.888-38.584-18.724-69.115-61.773-86.948-182.569-75.633-438.733-75.633-621.302 0-43.046 17.833-67.657 48.364-61.771 86.948 1.818 11.919 7.461 24.274 16.559 38.528 5.869 9.196 11.308 16.589 17.226 24.627 4.437 6.031 9.167 12.457 14.529 20.26l0.102 0.148c32.663 48.108 34.941 99.916 34.945 146.1zM638.5 125.281c-83.139-10.624-169.789-10.619-252.924 0.010 24.385-42.614 71.576-71.972 126.466-71.972 54.886 0 102.072 29.353 126.459 71.962z" />
<glyph unicode="&#xe90f;" glyph-name="world" d="M511.967-10.685c-253.315 0-458.666 205.353-458.666 458.67 0 253.313 205.352 458.665 458.666 458.665s458.668-205.352 458.668-458.665c0-253.317-205.353-458.67-458.668-458.67zM343.178 91.131c-128.38 60.826-218.695 188.897-225.469 338.724 28.543-14.874 62.030-25.313 99.379-25.313 27.040 0 46.916-1.321 61.701-4.091 14.737-2.76 22.141-6.559 26.173-9.861 6.813-5.581 13.231-17.495 13.231-60.017l-0.001-3.169c-0.002-39.373-0.003-62.766 3.125-83.686 3.222-21.545 9.696-40.095 19.992-69.596l0.854-2.442c12.039-34.509 13.715-59.756 1.015-80.548zM511.967 53.315c-37.559 0-73.892 5.248-108.307 15.048 20.627 42.368 11.836 87.409-1.070 124.401-11.391 32.645-15.74 45.46-17.977 60.416-2.334 15.616-2.421 33.92-2.421 77.394 0 42.255-4.674 83.323-36.683 109.532-15.379 12.594-34.319 19.39-54.937 23.252-20.572 3.854-45.063 5.183-73.484 5.183-36.264 0-69.116 14.725-95.989 34.426 21.293 152.757 130.021 277.518 273.995 322.092-0.938-11.991-0.456-23.972 1.563-35.609 5.862-33.803 25.106-65.65 60.384-82.774 13.451-6.529 18.857-13.12 21.832-18.625 3.571-6.607 5.331-14.609 7.307-27.895 0.212-1.426 0.424-2.906 0.642-4.434 3.632-25.426 9.179-64.255 52.109-92.038 28.989-18.762 65.275-25.494 103.721-14.18 37.724 11.101 74.911 38.713 109.588 83.597 21.376 27.667 50.345 41.846 78.141 48.106 47.939-65.338 76.252-145.975 76.252-233.223 0-4.936-0.092-9.846-0.271-14.73-36.582 8.689-78.275 4.838-119.808-25.016-38.441-27.628-69.76-29.998-98.545-31.314l-3.937-0.169c-13.076-0.553-29.737-1.254-44.564-5.929-19.338-6.098-35.471-18.504-46.602-39.834-15.596-29.891-13.030-56.253-4.588-79.304 3.727-10.184 8.694-20.004 12.892-28.293l0.276-0.543c4.516-8.929 8.484-16.788 11.791-25.19 6.236-15.821 9.999-33.244 6.031-56.504-3.456-20.265-13.082-46.597-34.749-81.178-23.532-4.378-47.795-6.666-72.594-6.666zM669.783 86.134c116.142 50.724 203.151 155.73 228.961 282.952-23.788 7.613-48.896 5.832-74.839-12.815-53.535-38.477-99.912-41.769-132.977-43.279-17.357-0.794-25.743-1.172-32.169-3.2-3.461-1.096-5.965-2.371-9.114-8.407-5.427-10.399-4.992-17.418-1.234-27.689 2.289-6.246 5.586-12.867 10.179-21.944l0.338-0.66c4.265-8.428 9.436-18.647 13.896-29.962 9.533-24.202 15.913-53.576 9.574-90.732-2.381-13.947-6.492-28.641-12.616-44.262zM462.52 839.582c-3.994-13.667-4.865-27.317-2.805-39.197 2.975-17.154 11.612-29.502 25.272-36.133 24.094-11.695 40.125-27.154 50.186-45.768 9.467-17.512 12.344-35.698 14.31-48.909l0.169-1.126c4.019-27.052 5.832-39.246 24.049-51.035 13.66-8.84 30.689-12.455 50.888-6.513 20.92 6.156 47.708 23.403 77.005 61.327 23.818 30.828 53.289 50.014 82.57 61.537-70.815 67.467-166.666 108.884-272.197 108.884-16.746 0-33.249-1.043-49.447-3.068z" />
<glyph unicode="&#xe910;" glyph-name="clock-2" d="M722.865 598.543c13.633 13.633 13.633 35.736 0 49.369s-35.733 13.633-49.366 0l-161.494-161.493-91.685 91.676c-13.633 13.632-35.737 13.631-49.369-0.002s-13.632-35.737 0.002-49.369l91.682-91.676-21.864-21.862c-13.633-13.633-13.633-35.738 0-49.371s35.734-13.633 49.368 0l21.867 21.867 21.853-21.848c13.633-13.633 35.733-13.633 49.366 0s13.633 35.738 0 49.371l-21.848 21.848 161.489 161.49zM512 937.409c-276.343 0-500.364-224.020-500.364-500.366 0-276.34 224.020-500.364 500.364-500.364 276.345 0 500.364 224.023 500.364 500.364 0 276.345-224.019 500.366-500.364 500.366zM81.455 437.043c0 237.786 192.762 430.548 430.545 430.548s430.545-192.762 430.545-430.548c0-237.782-192.763-430.545-430.545-430.545-237.784 0-430.545 192.763-430.545 430.545z" />
<glyph unicode="&#xe911;" glyph-name="services" d="M847.039 893.87h-2.248c-19.79 0-36.307 0-49.873-0.925-14.118-0.963-27.452-3.040-40.381-8.395-29.999-12.426-53.836-36.262-66.262-66.261-5.356-12.929-7.431-26.264-8.392-40.382-0.926-13.561-0.926-30.079-0.926-49.865v-180.339c0-19.787 0-36.307 0.926-49.869 0.962-14.118 3.036-27.452 8.392-40.381 12.426-30.003 36.263-53.836 66.262-66.262 12.929-5.356 26.263-7.431 40.381-8.397 13.566-0.926 30.083-0.926 49.869-0.926h2.253c19.785 0 36.307 0 49.869 0.926 14.118 0.966 27.452 3.041 40.381 8.397 29.999 12.426 53.836 36.259 66.262 66.262 5.356 12.929 7.431 26.263 8.392 40.381 0.926 13.561 0.926 30.078 0.926 49.865v180.34c0 19.786 0 36.308-0.926 49.869-0.962 14.118-3.036 27.453-8.392 40.382-12.426 30-36.263 53.835-66.262 66.261-12.929 5.355-26.263 7.432-40.381 8.395-13.561 0.925-30.083 0.925-49.869 0.925zM780.092 822.851c3.437 1.422 8.655 2.735 19.371 3.466 11.019 0.752 25.248 0.77 46.45 0.77s35.43-0.018 46.45-0.77c10.716-0.731 15.934-2.044 19.371-3.466 13.633-5.648 24.469-16.482 30.119-30.119 1.42-3.435 2.734-8.654 3.464-19.371 0.752-11.018 0.77-25.246 0.77-46.448v-178.087c0-21.202-0.018-35.428-0.77-46.447-0.73-10.716-2.044-15.939-3.464-19.371-5.65-13.637-16.486-24.469-30.119-30.119-3.437-1.425-8.655-2.734-19.371-3.468-11.019-0.748-25.248-0.77-46.45-0.77s-35.43 0.022-46.45 0.77c-10.716 0.735-15.934 2.044-19.371 3.468-13.633 5.65-24.469 16.482-30.115 30.119-1.425 3.433-2.738 8.655-3.468 19.371-0.752 11.019-0.77 25.246-0.77 46.447v178.087c0 21.201 0.018 35.43 0.77 46.448 0.73 10.717 2.044 15.936 3.468 19.371 5.645 13.637 16.482 24.47 30.115 30.119zM847.039 270.563h-2.248c-19.79 0.004-36.312 0.004-49.873-0.922-14.118-0.966-27.452-3.041-40.381-8.397-29.999-12.426-53.836-36.259-66.262-66.262-5.356-12.929-7.431-26.263-8.392-40.381-0.926-13.561-0.926-30.079-0.926-49.864v-2.253c0-19.785 0-36.307 0.926-49.869 0.962-14.118 3.036-27.452 8.392-40.381 12.426-30.003 36.263-53.836 66.262-66.262 12.929-5.356 26.263-7.431 40.381-8.397 13.561-0.926 30.079-0.926 49.869-0.926h2.253c19.785 0 36.307 0 49.869 0.926 14.118 0.966 27.452 3.041 40.381 8.397 29.999 12.426 53.836 36.259 66.262 66.262 5.356 12.929 7.431 26.263 8.392 40.381 0.926 13.561 0.926 30.079 0.926 49.864v2.253c0 19.785 0 36.307-0.926 49.869-0.962 14.118-3.036 27.452-8.392 40.381-12.426 30.003-36.263 53.836-66.262 66.262-12.929 5.356-26.263 7.431-40.381 8.397-13.561 0.926-30.079 0.926-49.869 0.922zM780.092 199.546c3.437 1.425 8.655 2.734 19.371 3.468 11.019 0.748 25.248 0.766 46.45 0.766s35.43-0.018 46.45-0.766c10.716-0.735 15.934-2.044 19.371-3.468 13.633-5.65 24.469-16.482 30.119-30.119 1.42-3.437 2.734-8.655 3.464-19.371 0.752-11.019 0.77-25.244 0.77-46.45 0-21.201-0.018-35.426-0.77-46.445-0.73-10.716-2.044-15.939-3.464-19.371-5.65-13.637-16.486-24.469-30.119-30.119-3.437-1.425-8.655-2.734-19.371-3.468-11.019-0.748-25.248-0.77-46.45-0.77s-35.43 0.022-46.45 0.77c-10.716 0.735-15.934 2.044-19.371 3.468-13.633 5.65-24.469 16.482-30.115 30.119-1.425 3.433-2.738 8.655-3.468 19.371-0.752 11.019-0.77 25.244-0.77 46.445 0 21.206 0.018 35.43 0.77 46.45 0.73 10.716 2.044 15.934 3.468 19.371 5.645 13.637 16.482 24.469 30.115 30.119zM264.815 448.65h93.674c40.002 0.004 73.358 0.004 99.84-3.557 27.951-3.758 53.186-12.021 73.461-32.301 20.28-20.28 28.547-45.515 32.305-73.465 3.562-26.482 3.557-59.837 3.557-99.836v-93.674c0-40.003 0.004-73.363-3.557-99.84-3.758-27.951-12.025-53.186-32.305-73.465-20.275-20.28-45.51-28.543-73.461-32.301-26.481-3.562-59.837-3.562-99.837-3.562h-93.676c-40.001 0-73.359 0-99.84 3.562-27.95 3.758-53.185 12.021-73.464 32.301s-28.545 45.515-32.303 73.465c-3.56 26.477-3.559 59.833-3.558 99.836v93.674c-0.001 40.003-0.002 73.363 3.558 99.84 3.758 27.951 12.024 53.186 32.303 73.465s45.513 28.543 73.464 32.301c26.481 3.562 59.837 3.562 99.839 3.557zM173.875 378.907c-20.545-2.76-29.338-7.538-35.14-13.339s-10.576-14.594-13.338-35.137c-2.891-21.508-2.962-50.336-2.962-93.26v-89.043c0-42.919 0.071-71.747 2.962-93.255 2.762-20.542 7.536-29.335 13.338-35.137 5.802-5.806 14.595-10.578 35.14-13.339 21.505-2.894 50.336-2.965 93.255-2.965h89.043c42.919 0 71.75 0.071 93.255 2.965 20.547 2.76 29.34 7.533 35.141 13.339 5.801 5.801 10.574 14.594 13.339 35.137 2.889 21.508 2.961 50.336 2.961 93.255v89.043c0 42.923-0.071 71.751-2.961 93.26-2.765 20.542-7.538 29.335-13.339 35.137s-14.594 10.578-35.141 13.339c-21.505 2.894-50.336 2.961-93.255 2.961h-89.043c-42.919 0-71.75-0.067-93.255-2.961zM401.82 893.87h-180.335c-19.788 0-36.307 0-49.869-0.925-14.118-0.963-27.453-3.040-40.382-8.395-30-12.426-53.835-36.262-66.261-66.261-5.355-12.929-7.432-26.264-8.395-40.382-0.925-13.562-0.925-30.081-0.925-49.869v-2.249c0-19.788 0-36.308 0.925-49.87 0.963-14.118 3.040-27.453 8.395-40.382 12.426-30 36.261-53.835 66.261-66.261 12.929-5.355 26.264-7.432 40.382-8.395 13.562-0.926 30.081-0.925 49.869-0.925h180.336c19.788 0 36.307-0.001 49.871 0.925 14.118 0.963 27.452 3.040 40.381 8.395 29.999 12.426 53.836 36.261 66.262 66.261 5.356 12.929 7.431 26.264 8.392 40.382 0.926 13.562 0.926 30.081 0.926 49.869v2.249c0 19.788 0 36.307-0.926 49.869-0.962 14.118-3.036 27.453-8.392 40.382-12.426 30-36.263 53.835-66.262 66.261-12.929 5.355-26.263 7.432-40.381 8.395-13.563 0.925-30.083 0.925-49.871 0.925zM156.79 822.851c3.435 1.422 8.654 2.735 19.371 3.466 11.018 0.752 25.246 0.77 46.448 0.77h178.087c21.201 0 35.43-0.018 46.45-0.77 10.716-0.731 15.934-2.044 19.371-3.466 13.633-5.648 24.469-16.482 30.119-30.119 1.42-3.435 2.734-8.654 3.464-19.371 0.752-11.018 0.77-25.246 0.77-46.448s-0.018-35.43-0.77-46.448c-0.73-10.718-2.044-15.936-3.464-19.371-5.65-13.636-16.486-24.47-30.119-30.119-3.437-1.423-8.655-2.735-19.371-3.466-11.019-0.752-25.248-0.77-46.45-0.77h-178.087c-21.201 0-35.43 0.018-46.448 0.77-10.717 0.731-15.936 2.044-19.371 3.466-13.637 5.648-24.47 16.482-30.119 30.119-1.423 3.435-2.735 8.654-3.466 19.371-0.752 11.017-0.77 25.246-0.77 46.448s0.018 35.43 0.77 46.448c0.731 10.717 2.044 15.936 3.466 19.371 5.648 13.637 16.482 24.47 30.119 30.119z" />
<glyph unicode="&#xe912;" glyph-name="home" d="M471.882 263.138c0 22.179 17.979 40.159 40.157 40.159h0.361c22.178 0 40.157-17.98 40.157-40.159s-17.979-40.159-40.157-40.159h-0.361c-22.178 0-40.157 17.98-40.157 40.159zM160.667 530.562v-129.141c-0.001-73.801-0.001-132.253 6.149-178.002 6.33-47.080 19.666-85.185 49.718-115.236s68.159-43.387 115.24-49.718c45.747-6.15 104.202-6.15 178-6.15h4.533c73.798 0 132.253 0 177.996 6.15 47.080 6.331 85.191 19.667 115.242 49.718s43.387 68.156 49.718 115.236c6.15 45.749 6.15 104.207 6.15 178.003v129.141l29.353-28.144c12.005-11.512 31.069-11.112 42.58 0.894s11.113 31.071-0.891 42.583l-176.020 168.777c-52.176 50.032-93.527 89.684-130.238 116.541-37.83 27.676-74.039 44.316-116.157 44.316s-78.326-16.639-116.157-44.316c-36.711-26.858-78.063-66.509-130.24-116.541l-176.017-168.777c-12.006-11.512-12.406-30.577-0.894-42.583s30.577-12.406 42.583-0.894l29.351 28.144zM305.722 669.652c54.148 51.921 92.638 88.74 125.726 112.947 32.346 23.664 56.175 32.695 80.591 32.695s48.246-9.031 80.591-32.695c33.088-24.207 71.578-61.027 125.724-112.947l84.823-81.332v-184.634c0-76.572-0.066-130.971-5.614-172.238-5.433-40.4-15.619-63.681-32.611-80.673-16.998-16.992-40.273-27.184-80.673-32.611-41.267-5.548-95.668-5.614-172.24-5.614s-130.971 0.066-172.239 5.614c-40.402 5.427-63.678 15.619-80.673 32.611s-27.181 40.273-32.613 80.673c-5.548 41.267-5.612 95.666-5.612 172.238v184.634l84.82 81.332z" />
<glyph unicode="&#xe913;" glyph-name="Alert" d="M468.953 277.357c0 23.564 19.103 42.667 42.666 42.667h0.383c23.564 0 42.666-19.103 42.666-42.667s-19.102-42.666-42.666-42.666h-0.383c-23.564 0-42.666 19.103-42.666 42.666zM479.952 405.357c0-17.673 14.326-32 32-32s32 14.327 32 32v170.667c0 17.673-14.327 32-32 32s-32-14.327-32-32v-170.667zM442.064 874.051c45.417 15.075 94.361 15.075 139.777 0 45.229-15.013 80.741-50.62 116.417-100.648 35.555-49.863 74.847-119.387 125.491-209.005l1.989-3.519c50.659-89.632 89.944-159.152 114.432-215.531 24.605-56.654 36.857-105.569 27.077-152.558-9.845-47.316-34.114-90.346-69.471-122.865-35.269-32.439-83.288-46.124-143.755-52.699-60.12-6.532-138.766-6.532-239.99-6.532h-4.16c-101.224 0-179.87 0-239.993 6.532-60.465 6.576-108.485 20.261-143.753 52.699-35.353 32.519-59.628 75.549-69.472 122.865-9.777 46.988 2.477 95.904 27.080 152.558 24.485 56.379 63.774 125.899 114.429 215.532l1.988 3.518c50.647 89.618 89.937 159.142 125.495 209.005 35.676 50.028 71.188 85.635 116.417 100.648zM561.679 813.309c-32.326 10.731-67.126 10.731-99.452 0-25.429-8.441-50.992-30.117-84.472-77.066-33.364-46.787-71.029-113.347-122.883-205.101-51.851-91.748-89.447-158.36-112.434-211.289-23.026-53.020-28.794-86.781-23.125-114.029 7.151-34.37 24.748-65.434 50.142-88.795 19.944-18.344 51.021-30.054 107.342-36.176 56.253-6.115 131.417-6.159 235.156-6.159s178.903 0.044 235.158 6.159c56.32 6.122 87.398 17.832 107.337 36.176 25.395 23.362 42.993 54.426 50.147 88.795 5.669 27.248-0.102 61.009-23.128 114.029-22.989 52.928-60.584 119.54-112.435 211.289-51.851 91.754-89.516 158.315-122.881 205.101-33.48 46.949-59.043 68.626-84.472 77.066z" />
<glyph unicode="&#xe914;" glyph-name="location" horiz-adv-x="935" d="M534.261 414.609c-79.783 0-144.696 64.913-144.696 144.696s64.913 144.696 144.696 144.696c79.783 0 144.696-64.913 144.696-144.696s-64.913-144.696-144.696-144.696zM534.261 637.217c-42.963 0-77.913-34.95-77.913-77.913s34.95-77.913 77.913-77.913c42.963 0 77.913 34.95 77.913 77.913s-34.95 77.913-77.913 77.913zM455.146 157.050c21.37-20.525 49.464-31.833 79.115-31.833s57.696 11.309 79.066 31.878c10.418 10.017 21.108 20.168 31.927 30.408 133.432 126.531 299.493 284.004 207.734 504.654-52.758 126.931-180.887 212.19-318.727 212.19s-265.931-85.259-318.689-212.19c-91.448-219.804 73.238-376.565 205.556-502.517l1.28-1.22c11.050-10.538 21.975-20.952 32.737-31.37zM277.235 666.513c42.518 102.311 145.809 171.052 257.026 171.052v0.045c111.215 0 214.55-68.741 257.113-171.052 74.084-178.176-61.173-306.488-192.022-430.57-10.952-10.374-21.727-20.614-32.278-30.765-8.86-8.548-20.525-13.223-32.813-13.223s-23.953 4.719-32.728 13.134c-11.219 10.863-22.702 21.816-34.366 32.902-129.644 123.41-263.746 251.067-189.932 428.478zM534.261-52.87c-144.696 0-389.565 28.093-389.565 133.387 0 49.553 53.694 86.817 159.611 110.681 17.987 4.051 35.839-7.257 39.935-25.244 4.051-17.987-7.257-35.84-25.243-39.936-76.577-17.274-102.712-38.066-107.12-45.546 10.685-19.99 116.959-66.56 322.427-66.56s311.697 46.57 322.426 66.56c-4.408 7.48-30.542 28.316-107.119 45.546-17.987 4.051-29.295 21.905-25.244 39.936 4.051 17.987 21.905 29.295 39.936 25.244 105.917-23.864 159.61-61.084 159.61-110.681 0-44.255-43.32-78.893-128.668-102.845-70.122-19.679-162.771-30.542-260.897-30.542h-0.089z" />
<glyph unicode="&#xe915;" glyph-name="clock" d="M544.042 618.687c0 17.673-14.327 32-32 32s-32-14.327-32-32v-170.666c0-8.487 3.372-16.627 9.373-22.628l85.333-85.333c12.497-12.497 32.758-12.497 45.255 0s12.497 32.758 0 45.255l-75.961 75.96v157.412zM512.042 906.687c-253.315 0-458.667-205.352-458.667-458.666s205.352-458.664 458.667-458.664c253.315 0 458.666 205.35 458.666 458.664s-205.35 458.666-458.666 458.666zM117.375 448.021c0 217.968 176.699 394.666 394.667 394.666s394.666-176.698 394.666-394.666c0-217.967-176.698-394.664-394.666-394.664s-394.667 176.698-394.667 394.664z" />
<glyph unicode="&#xe916;" glyph-name="calendar" d="M341.292 448.021c-23.564 0-42.666-19.103-42.666-42.667s19.102-42.667 42.666-42.667h0.383c23.564 0 42.667 19.103 42.667 42.667s-19.103 42.667-42.667 42.667h-0.383zM511.767 448.021c-23.564 0-42.667-19.103-42.667-42.667s19.103-42.667 42.667-42.667h0.383c23.564 0 42.667 19.103 42.667 42.667s-19.103 42.667-42.667 42.667h-0.383zM682.24 448.021c-23.565 0-42.664-19.103-42.664-42.667s19.1-42.667 42.664-42.667h0.384c23.565 0 42.669 19.103 42.669 42.667s-19.104 42.667-42.669 42.667h-0.384zM341.292 277.357c-23.564 0-42.666-19.104-42.666-42.669s19.102-42.669 42.666-42.669h0.383c23.564 0 42.667 19.104 42.667 42.669s-19.103 42.669-42.667 42.669h-0.383zM511.767 277.357c-23.564 0-42.667-19.104-42.667-42.669s19.103-42.669 42.667-42.669h0.383c23.564 0 42.667 19.104 42.667 42.669s-19.103 42.669-42.667 42.669h-0.383zM287.958 874.687v-15.612c48.472 4.946 108.118 4.946 180.874 4.945h86.252c72.756 0.001 132.404 0.001 180.871-4.945v15.612c0 17.673 14.33 32 32 32 17.677 0 32-14.327 32-32v-27.084c34.342-9.732 63.296-25.549 87.405-51.608 33.19-35.882 47.942-81.219 55.008-138.033 6.925-55.672 6.925-127.018 6.925-218.051v-26.447c0-91.033 0-162.379-6.925-218.052-7.066-56.813-21.818-102.15-55.008-138.029-33.517-36.237-76.429-52.672-130.125-60.474-51.968-7.558-118.367-7.558-202.151-7.552h-86.252c-83.784-0.006-150.184-0.006-202.153 7.552-53.697 7.802-96.604 24.237-130.122 60.474-33.191 35.878-47.944 81.216-55.010 138.029-6.924 55.674-6.923 127.019-6.922 218.051v26.45c-0.001 91.033-0.001 162.378 6.922 218.049 7.066 56.815 21.819 102.151 55.010 138.033 24.105 26.059 53.064 41.876 87.401 51.608v27.084c0 17.673 14.327 32 32 32s32-14.327 32-32zM225.179 780.572c-17.379-6.915-30.574-16.073-41.639-28.035-20.186-21.823-32.136-51.753-38.438-102.12 1.372 0.179 2.77 0.271 4.189 0.271h725.332c1.421 0 2.822-0.092 4.192-0.271-6.304 50.367-18.253 80.298-38.438 102.12-11.066 11.962-24.262 21.12-41.638 28.035-3.821-13.403-16.154-23.217-30.784-23.217-17.67 0-32 14.327-32 32v5.351c-45.267 5.249-103.778 5.315-183.464 5.315h-81.066c-79.686 0-138.197-0.066-183.467-5.315v-5.351c0-17.673-14.327-32-32-32-14.627 0-26.963 9.814-30.78 23.217zM140.337 587.957c-1.688-41.084-1.712-90.287-1.712-150.315v-21.91c0-93.795 0.058-161.16 6.433-212.424 6.29-50.579 18.248-80.595 38.481-102.47 19.905-21.517 46.703-33.965 92.346-40.595 46.836-6.81 108.58-6.886 195.54-6.886h81.066c86.96 0 148.705 0.077 195.54 6.886 45.645 6.63 72.442 19.078 92.346 40.595 20.23 21.875 32.192 51.891 38.483 102.47 6.374 51.264 6.432 118.629 6.432 212.424v21.91c0 60.028-0.026 109.231-1.715 150.315-2.842-0.826-5.843-1.27-8.954-1.27h-725.332c-3.108 0-6.113 0.444-8.954 1.27z" />
</font>
</defs>
</svg>
